<?xml version="1.0" encoding="utf-8"?>
<!-- Generator: Adobe Illustrator 23.0.1, SVG Export Plug-In . SVG Version: 6.00 Build 0)  -->
<svg version="1.1" id="Layer_1" xmlns="http://www.w3.org/2000/svg" xmlns:xlink="http://www.w3.org/1999/xlink" x="0px" y="0px"
	 viewBox="0 0 129.06 41.79" style="enable-background:new 0 0 129.06 41.79;" xml:space="preserve">
<style type="text/css">
	.st0{fill:#FFFFFF;}
</style>
<circle class="st0" cx="20.89" cy="20.89" r="20.89"/>
<g>
	<path d="M7.09,25.88c-0.64,0-0.94-0.51-0.85-1.08L8.04,15c0.11-0.59,0.52-1.08,1.17-1.07l3.68,0.01c3.44,0.01,4.94,2.62,4.32,6.02
		c-0.62,3.38-3,5.95-6.44,5.94L7.09,25.88z M8.99,23.66l2.15,0.01c1.91,0.01,3.17-1.76,3.54-3.72c0.37-1.98-0.25-3.77-2.16-3.77
		l-2.15-0.01L8.99,23.66z"/>
	<path d="M21.7,23.09l-1.22,2.18c-0.33,0.59-1.1,0.87-1.7,0.66c-0.59-0.21-0.8-0.99-0.48-1.58l5.15-9.29
		c0.4-0.73,1.03-1.18,1.91-1.18l0.1,0c0.89,0,1.35,0.45,1.51,1.18l1.78,9.31c0.1,0.59-0.39,1.37-1.05,1.58
		c-0.68,0.21-1.37-0.07-1.49-0.66L25.8,23.1L21.7,23.09z M25.35,20.9l-0.46-4.17l-1.97,4.16L25.35,20.9z"/>
	<path d="M36.31,20.58l-0.76,4.29c-0.12,0.64-0.78,1.18-1.48,1.18c-0.66,0-1.18-0.56-1.06-1.18l0.78-4.32l-2.5-4.77
		c-0.24-0.5,0.06-1.28,0.65-1.65c0.59-0.36,1.35-0.27,1.6,0.23l1.9,4.12l3.42-4.11c0.44-0.5,1.23-0.59,1.7-0.22
		c0.47,0.37,0.47,1.15,0.05,1.65L36.31,20.58z"/>
	<path class="st0" d="M48.12,16.27l-1.57,8.63c-0.12,0.64-0.79,1.18-1.48,1.18c-0.66,0-1.16-0.56-1.06-1.18l1.59-8.63l-2.29-0.01
		c-0.54,0-0.97-0.54-0.87-1.11c0.12-0.62,0.66-1.13,1.24-1.13l7.12,0.02c0.57,0,0.97,0.51,0.85,1.13c-0.11,0.57-0.68,1.11-1.22,1.11
		L48.12,16.27z"/>
	<path class="st0" d="M54.93,24.92c-0.11,0.64-0.77,1.18-1.46,1.18c-0.66,0-1.18-0.56-1.07-1.18l1.8-9.77
		c0.11-0.63,0.79-1.18,1.44-1.18c0.69,0,1.18,0.54,1.09,1.18L54.93,24.92z"/>
	<path class="st0" d="M70.33,14.77c0.44-0.66,0.78-0.76,1.27-0.76l0.26,0c0.59,0,0.97,0.54,0.95,1.13l-0.58,9.74
		c-0.02,0.61-0.7,1.21-1.38,1.26c-0.68,0.05-1.2-0.44-1.16-1.08l0.38-6.18l-3.28,4.9c-0.3,0.49-0.85,1.06-1.6,1.05
		c-0.75,0-1.04-0.58-1.19-1.06l-1.51-4.92l-1.81,6.18c-0.21,0.64-0.89,1.13-1.57,1.07c-0.64-0.05-1.13-0.66-0.95-1.27l2.98-9.73
		c0.16-0.59,0.71-1.13,1.31-1.13l0.26,0c0.49,0,0.85,0.11,1.02,0.77l2.03,7.04L70.33,14.77z"/>
	<path class="st0" d="M83.97,14.13c0.57,0,0.97,0.51,0.85,1.13c-0.11,0.57-0.66,1.11-1.22,1.11l-3.99-0.01l-0.53,2.74l3.46,0.01
		c0.57,0,0.97,0.49,0.87,1.1c-0.11,0.57-0.68,1.09-1.24,1.09l-3.46-0.01l-0.48,2.57l4.15,0.01c0.57,0,0.97,0.51,0.85,1.11
		c-0.11,0.57-0.68,1.11-1.24,1.11l-5.68-0.02c-0.64,0-0.92-0.49-0.83-1.08l1.8-9.81c0.11-0.59,0.52-1.08,1.17-1.07L83.97,14.13z"/>
	<path class="st0" d="M87.94,15.45c0.14-0.71,0.66-1.3,1.43-1.3l3.68,0.01c2.73,0.01,3.59,1.97,3.24,3.93
		c-0.35,1.98-1.92,3.9-4.65,3.89l-2.36-0.01l-0.55,3.04c-0.11,0.64-0.77,1.18-1.46,1.18c-0.66,0-1.18-0.56-1.07-1.18L87.94,15.45z
		 M90.32,16.39l-0.64,3.37l2.24,0.01c0.99,0,1.67-0.9,1.81-1.68c0.14-0.75-0.15-1.69-1.11-1.69L90.32,16.39z"/>
	<path class="st0" d="M99.78,23.31l-1.22,2.18c-0.33,0.59-1.1,0.87-1.7,0.66c-0.59-0.21-0.8-0.99-0.48-1.58l5.15-9.29
		c0.4-0.73,1.03-1.18,1.91-1.18l0.1,0c0.89,0,1.35,0.45,1.51,1.18l1.78,9.31c0.1,0.59-0.39,1.37-1.05,1.58
		c-0.68,0.21-1.37-0.07-1.49-0.66l-0.41-2.19L99.78,23.31z M103.43,21.12l-0.46-4.17L101,21.11L103.43,21.12z"/>
	<path class="st0" d="M109.96,22.33c0.73-0.26,1.3,0.11,1.46,0.61c0.15,0.54,0.64,1.13,1.72,1.13c1.02,0,1.84-0.48,2-1.26
		c0.11-0.54-0.05-1.02-1.21-1.36l-1.39-0.4c-2.46-0.82-2.65-2.33-2.46-3.41c0.39-2.13,2.48-3.57,4.77-3.56
		c1.72,0,2.86,0.75,3.28,2.01c0.19,0.57-0.16,1.13-0.63,1.4c-0.7,0.4-1.23,0.22-1.54-0.3c-0.4-0.64-1.01-0.84-1.54-0.84
		c-0.89,0-1.65,0.52-1.77,1.23c-0.05,0.31-0.04,0.89,1.07,1.22l1.35,0.42c2.74,0.84,2.88,2.47,2.63,3.62
		c-0.48,2.38-2.82,3.5-4.94,3.49s-3.44-1.03-3.71-2.58C108.93,23.15,109.33,22.56,109.96,22.33z"/>
	<path class="st0" d="M120.85,22.36c0.73-0.26,1.3,0.11,1.46,0.61c0.15,0.54,0.64,1.13,1.72,1.13c1.02,0,1.84-0.48,2-1.26
		c0.11-0.54-0.05-1.02-1.21-1.36l-1.39-0.4c-2.46-0.82-2.65-2.33-2.46-3.41c0.39-2.13,2.48-3.57,4.77-3.56
		c1.72,0,2.86,0.75,3.28,2.01c0.19,0.57-0.16,1.13-0.63,1.4c-0.7,0.4-1.23,0.22-1.54-0.3c-0.4-0.64-1.01-0.84-1.54-0.84
		c-0.89,0-1.65,0.52-1.77,1.23c-0.05,0.31-0.04,0.88,1.07,1.22l1.35,0.42c2.74,0.84,2.88,2.47,2.63,3.62
		c-0.48,2.38-2.82,3.5-4.94,3.49c-2.12-0.01-3.44-1.03-3.71-2.58C119.82,23.18,120.22,22.59,120.85,22.36z"/>
</g>
</svg>
